<?xml version="1.0" encoding="UTF-8"?>
<svg version="1.1" xmlns="http://www.w3.org/2000/svg" width="1765" height="717">
<path d="M0 0 C2.66264308 -0.00208832 5.32527477 -0.00497022 7.98791483 -0.00880873 C13.7780056 -0.0155649 19.56805864 -0.01495377 25.35815019 -0.00944164 C34.0261161 -0.00122719 42.69405164 -0.00461981 51.36201827 -0.01020693 C66.13761187 -0.01939276 80.91319168 -0.01911382 95.68878651 -0.01364517 C110.65790111 -0.00813868 125.62700664 -0.00698518 140.59612179 -0.01111984 C141.54231178 -0.01137819 142.48850177 -0.01163653 143.46336419 -0.01190271 C147.31717668 -0.01296927 151.17098917 -0.01406669 155.02480164 -0.01520326 C190.90381217 -0.02577724 226.78281663 -0.02650141 262.66182804 -0.02090836 C263.72458891 -0.02074276 264.78734978 -0.02057717 265.88231552 -0.02040657 C266.94677848 -0.02024071 268.01124145 -0.02007485 269.10796087 -0.01990396 C301.53596549 -0.01485784 333.96396761 -0.0135547 366.39197254 -0.01594925 C368.56340673 -0.01610421 370.73484091 -0.01625852 372.9062751 -0.01641219 C381.63233462 -0.01703312 390.35839415 -0.01767045 399.08445367 -0.01833172 C423.47737824 -0.02016574 447.87030283 -0.02130693 472.26322746 -0.02190399 C473.37402439 -0.02193128 474.48482131 -0.02195857 475.62927874 -0.02198669 C511.02433471 -0.02280525 546.4193898 -0.02055143 581.8144455 -0.01620483 C583.53647159 -0.01599409 583.53647159 -0.01599409 585.29328609 -0.01577908 C603.93641492 -0.01348918 622.57954374 -0.01105026 641.22267256 -0.00859874 C715.16628037 0.00111429 789.10988095 0.00066284 863.05348873 -0.00905991 C881.68839708 -0.01150228 900.32330543 -0.01392437 918.95821381 -0.01620483 C920.67933139 -0.01641618 920.67933139 -0.01641618 922.43521903 -0.01663179 C957.79423994 -0.02094396 993.15326025 -0.02277275 1028.51228142 -0.02190399 C1029.62224944 -0.02187682 1030.73221747 -0.02184965 1031.87582089 -0.02182166 C1056.24101833 -0.02119671 1080.60621572 -0.01992945 1104.9714131 -0.01808299 C1113.6893617 -0.0174247 1122.4073103 -0.01679854 1131.1252589 -0.01618156 C1133.29406516 -0.01602679 1135.46287142 -0.01586933 1137.63167768 -0.01570917 C1170.0519344 -0.01332171 1202.47218829 -0.0153554 1234.89244465 -0.02040657 C1235.95528831 -0.02057216 1237.01813198 -0.02073775 1238.11318302 -0.02090836 C1239.70450862 -0.0211564 1239.70450862 -0.0211564 1241.32798222 -0.02140946 C1277.10223563 -0.02692477 1312.87648176 -0.02489897 1348.65073413 -0.01434687 C1352.49182109 -0.01324215 1356.33290805 -0.01216875 1360.17399502 -0.01111984 C1361.58800201 -0.01072922 1361.58800201 -0.01072922 1363.03057479 -0.01033071 C1377.96013209 -0.00638515 1392.88968032 -0.00913324 1407.8192368 -0.01465785 C1422.49743999 -0.019947 1437.17562788 -0.01809387 1451.85382912 -0.00862968 C1460.45987197 -0.00329239 1469.06587288 -0.00340388 1477.67191373 -0.01159287 C1483.38981544 -0.01648582 1489.10768455 -0.01410814 1494.82558232 -0.00585917 C1498.06533764 -0.00138696 1501.3049936 -0.00107113 1504.54474806 -0.0074922 C1536.42219019 -0.06619212 1536.42219019 -0.06619212 1550.00685787 4.68918228 C1551.8225024 5.30599869 1551.8225024 5.30599869 1553.67482662 5.93527603 C1556.53666014 7.13333553 1558.40710747 8.36152214 1560.81935787 10.25168228 C1562.21347897 10.93810806 1562.21347897 10.93810806 1563.63576412 11.63840103 C1567.27664835 13.48341353 1570.46206812 15.67026239 1573.75685787 18.06418228 C1574.68425777 18.73610611 1574.68425777 18.73610611 1575.63039303 19.42160416 C1583.68835332 25.30283 1589.7362191 31.28152903 1595.81935787 39.25168228 C1596.3684985 39.93488541 1596.91763912 40.61808853 1597.48342037 41.32199478 C1616.25173285 65.09519059 1615.27901328 96.18585362 1615.22619092 124.84039891 C1615.22140889 129.22159662 1615.23401302 133.60275256 1615.24420834 137.98393631 C1615.26130421 146.54082254 1615.26225562 155.09763504 1615.25699543 163.6545339 C1615.2529352 170.61753934 1615.25441915 177.58052318 1615.25974369 184.5435276 C1615.26049211 185.53885795 1615.26124053 186.53418829 1615.26201164 187.55968016 C1615.26354329 189.58243166 1615.26508164 191.60518316 1615.2666266 193.62793466 C1615.28031833 212.54803334 1615.27493744 231.46809055 1615.26344139 250.38818827 C1615.25351261 267.64997872 1615.2664495 284.91166193 1615.29037558 302.17343584 C1615.31483083 319.95267629 1615.32435871 337.73186692 1615.31772286 355.51112384 C1615.31424486 365.47087168 1615.3163682 375.43053713 1615.33397388 385.39027214 C1615.34877655 393.86852206 1615.34922692 402.34663156 1615.33190297 410.82487897 C1615.32345641 415.13974798 1615.3210855 419.45436703 1615.33655453 423.76922226 C1615.52443983 480.31157301 1615.52443983 480.31157301 1599.81935787 501.25168228 C1598.65146725 502.82949478 1598.65146725 502.82949478 1597.45998287 504.43918228 C1592.17417287 511.47348156 1586.56969694 517.73053814 1580.06935787 523.68918228 C1578.90146725 524.77006119 1578.90146725 524.77006119 1577.70998287 525.87277603 C1570.89854518 531.47840516 1563.77028362 535.51815729 1555.63185787 538.87668228 C1554.8075024 539.24535416 1553.98314693 539.61402603 1553.133811 539.99386978 C1534.17522893 547.87132012 1513.58156729 547.84528486 1493.40377235 547.79332399 C1489.82529997 547.78892901 1486.24695997 547.80889513 1482.66854 547.82648087 C1475.92843634 547.85641471 1469.18845003 547.86840697 1462.44828534 547.87205732 C1450.32782146 547.87878037 1438.20743568 547.90771574 1426.08707166 547.95715368 C1421.84089221 547.9736299 1417.59488359 547.97907401 1413.34867525 547.97556329 C1410.10939283 547.97502552 1406.87014749 547.98679911 1403.63088131 547.99631119 C1402.45703884 547.99218719 1401.28319637 547.9880632 1400.07378292 547.98381424 C1399.00898708 547.98919708 1397.94419125 547.99457993 1396.84712887 548.00012589 C1395.45475821 548.00062911 1395.45475821 548.00062911 1394.03425884 548.0011425 C1391.61363378 548.04197435 1391.61363378 548.04197435 1389.81935787 550.25168228 C1389.50717724 552.73777974 1389.50717724 552.73777974 1389.5476141 555.67978287 C1389.53789577 556.83238098 1389.52817745 557.9849791 1389.51816463 559.17250443 C1389.51757549 560.44322296 1389.51698635 561.7139415 1389.51637936 563.02316666 C1389.50872114 564.36995836 1389.50017534 565.71674527 1389.49080563 567.06352615 C1389.47250368 569.96697393 1389.46048007 572.87035698 1389.4532671 575.7738533 C1389.44180344 580.36170875 1389.41635742 584.94942077 1389.38895321 589.53720474 C1389.3472719 596.79146391 1389.31487165 604.0457299 1389.28647906 611.30005217 C1389.2355321 624.2958655 1389.17343121 637.2916192 1389.10113865 650.2873311 C1389.07617764 654.85123303 1389.05676337 659.41511599 1389.04175651 663.97906113 C1389.0315722 666.81441007 1389.01742619 669.64972958 1389.00228024 672.48505592 C1388.99315975 674.43364448 1388.98903007 676.38225436 1388.98502254 678.33086014 C1388.97812405 679.48345825 1388.97122555 680.63605637 1388.964118 681.8235817 C1388.96026309 682.82942558 1388.95640818 683.83526947 1388.95243645 684.87159348 C1388.81935787 687.25168228 1388.81935787 687.25168228 1387.81935787 689.25168228 C1383.27829147 687.86413422 1381.68939099 685.94172486 1378.81935787 682.25168228 C1376.8724597 680.45969859 1374.86682742 678.74768613 1372.85842037 677.02511978 C1370.01811967 674.55481994 1367.38422195 672.00891117 1364.81935787 669.25168228 C1364.81935787 668.59168228 1364.81935787 667.93168228 1364.81935787 667.25168228 C1363.82935787 666.92168228 1362.83935787 666.59168228 1361.81935787 666.25168228 C1360.10909513 664.62978311 1358.44847648 662.95506953 1356.81935787 661.25168228 C1355.92217037 660.36609634 1355.02498287 659.48051041 1354.10060787 658.56808853 C1345.6876007 650.23779351 1345.6876007 650.23779351 1343.13185787 647.00168228 C1340.56805659 643.95283751 1337.76034044 641.49246008 1334.73732662 638.91183853 C1332.30633691 636.80762137 1330.06167811 634.55460577 1327.81935787 632.25168228 C1326.91185787 631.38543228 1326.00435787 630.51918228 1325.06935787 629.62668228 C1322.81935787 627.25168228 1322.81935787 627.25168228 1321.81935787 624.25168228 C1321.17998287 623.94230728 1320.54060787 623.63293228 1319.88185787 623.31418228 C1317.31884069 621.9938401 1317.07862417 620.77021489 1315.81935787 618.25168228 C1315.24185787 617.96293228 1314.66435787 617.67418228 1314.06935787 617.37668228 C1310.73223871 615.7081227 1308.17133446 613.13677356 1305.81935787 610.25168228 C1305.81935787 609.59168228 1305.81935787 608.93168228 1305.81935787 608.25168228 C1304.49935787 607.59168228 1303.17935787 606.93168228 1301.81935787 606.25168228 C1301.81935787 605.59168228 1301.81935787 604.93168228 1301.81935787 604.25168228 C1301.27150631 604.03125259 1300.72365475 603.81082291 1300.15920162 603.58371353 C1297.08386793 601.832981 1294.81777067 599.46221163 1292.38185787 596.93918228 C1291.91715084 596.46545181 1291.45244381 595.99172134 1290.97365475 595.50363541 C1289.58613029 594.08901842 1288.2027228 592.67036717 1286.81935787 591.25168228 C1285.87963131 590.35062759 1284.93990475 589.44957291 1283.97170162 588.52121353 C1281.81935787 586.25168228 1281.81935787 586.25168228 1281.81935787 584.25168228 C1281.20060787 584.00418228 1280.58185787 583.75668228 1279.94435787 583.50168228 C1277.4157716 582.01427859 1277.10096783 580.81490219 1275.81935787 578.25168228 C1274.49528119 577.56681503 1273.16026546 576.90298026 1271.81935787 576.25168228 C1270.12555025 574.61260593 1268.46302684 572.9410336 1266.81935787 571.25168228 C1265.98130611 570.40315689 1265.14325436 569.5546315 1264.27980709 568.68039322 C1263.40340572 567.79126236 1262.52700436 566.9021315 1261.62404537 565.98605728 C1260.15264817 564.49993955 1258.68030651 563.01476475 1257.20754147 561.53000259 C1256.19339779 560.50571421 1255.18104365 559.47965109 1254.17043209 558.45187759 C1252.7013173 556.95855445 1251.22587942 555.47174181 1249.74904537 553.98605728 C1248.87489986 553.10143814 1248.00075436 552.216819 1247.10011959 551.30539322 C1242.95942779 547.57690901 1238.64923866 548.11117661 1233.37713611 548.12682509 C1232.49934592 548.12547373 1231.62155572 548.12412238 1230.71716582 548.12273007 C1227.74319581 548.11938864 1224.76927706 548.12323701 1221.79530811 548.12698364 C1219.64542144 548.1260539 1217.49553491 548.12468368 1215.34564877 548.1229102 C1209.3902185 548.11927746 1203.43480441 548.121916 1197.47937471 548.12548369 C1191.01800694 548.12824753 1184.55664165 548.12519899 1178.09527409 548.12283635 C1166.75453216 548.11930451 1155.41379446 548.11973931 1144.07305241 548.12239265 C1131.89948279 548.1252091 1119.72591601 548.12580369 1107.55234623 548.12364006 C1106.78441688 548.12350383 1106.01648754 548.1233676 1105.2252876 548.12322724 C1101.30976812 548.12251715 1097.39424864 548.12176029 1093.47872916 548.12097849 C1085.44934406 548.11938204 1077.41995891 548.11804969 1069.39057374 548.11679029 C1068.17736121 548.11659853 1068.17736121 548.11659853 1066.93963933 548.1164029 C1054.34374369 548.11445392 1041.74784829 548.1137094 1029.15195251 548.11366701 C1028.30051204 548.11366322 1027.44907157 548.11365943 1026.57182988 548.11365553 C1023.11371765 548.11364135 1019.65560542 548.1136309 1016.19749319 548.11362209 C973.04314742 548.11348179 929.88881089 548.10201908 886.73446834 548.08600304 C878.64428404 548.08300434 870.55409971 548.08010648 862.46391538 548.07719785 C857.93341827 548.07556835 853.40292116 548.07393387 848.87242404 548.07229878 C847.97257774 548.07197411 847.07273144 548.07164944 846.14561707 548.07131493 C840.67458427 548.06933967 835.20355148 548.06735375 829.7325187 548.06536053 C788.55760693 548.05036321 747.38269484 548.03658738 706.20778212 548.02449404 C703.35379512 548.02365473 700.49980813 548.0228094 697.64582113 548.02196354 C653.71052285 548.00898686 609.77522708 547.99984352 565.83992672 548.00027847 C564.8956165 548.00028728 563.95130627 548.00029608 562.97838059 548.00030515 C547.75363807 548.0004615 532.52889555 548.00084614 517.30415303 548.00127405 C473.43565281 548.00250517 429.56715967 548.00077999 385.69866276 547.98218536 C384.34463606 547.98161366 384.34463606 547.98161366 382.96325528 547.9810304 C364.03425683 547.97299759 345.10525906 547.96389803 326.1762618 547.95342912 C317.31095731 547.94852845 308.4456527 547.94385658 299.58034801 547.93931198 C298.27110307 547.93863438 298.27110307 547.93863438 296.93540873 547.93794308 C268.84457278 547.92351698 240.75376676 547.92535979 212.66292996 547.93594709 C184.35251749 547.94655968 156.04215338 547.94179653 127.73174962 547.91568514 C123.81356417 547.91207646 119.89537858 547.90864785 115.97719288 547.90532875 C114.82515049 547.90434352 114.82515049 547.90434352 113.64983452 547.90333838 C101.52185166 547.89342893 89.393939 547.90024887 77.26596251 547.91417379 C65.32029443 547.9275442 53.37474257 547.92295835 41.42908854 547.89969763 C35.0470826 547.88800825 28.66534136 547.88406205 22.28334497 547.90237424 C-36.67293095 548.05950091 -36.67293095 548.05950091 -59.18064213 537.25168228 C-59.94376713 536.89719009 -60.70689213 536.54269791 -61.49314213 536.17746353 C-85.54469473 523.93694122 -101.11548775 502.40376694 -110.61814213 477.81418228 C-110.98842533 476.87638931 -110.98842533 476.87638931 -111.366189 475.91965103 C-114.92268997 466.31405868 -114.32397382 456.04634223 -114.30762577 445.96226883 C-114.30877915 444.41070295 -114.31036814 442.85913734 -114.31235301 441.30757231 C-114.3165165 437.06021338 -114.31446912 432.81287701 -114.3113668 428.56551802 C-114.30910075 423.97852848 -114.31259833 419.39154276 -114.31534672 414.80455399 C-114.31979059 405.82475039 -114.31883405 396.84495516 -114.31593408 387.86515123 C-114.31367448 380.56567937 -114.31336994 373.26620986 -114.31445789 365.96673775 C-114.31461113 364.92730856 -114.31476436 363.88787937 -114.31492224 362.81695233 C-114.31524197 360.70527145 -114.31556618 358.59359057 -114.31589483 356.48190968 C-114.31874561 336.68573652 -114.31546896 316.88956799 -114.31009446 297.09339558 C-114.30562745 280.11433583 -114.30640229 263.13528292 -114.31101322 246.1562233 C-114.31636721 226.4317895 -114.31847026 206.70735977 -114.31540096 186.98292536 C-114.31508241 184.87876443 -114.31476804 182.77460351 -114.31445789 180.67044258 C-114.31430362 179.63519913 -114.31414934 178.59995568 -114.31399039 177.53334122 C-114.31312767 170.24474731 -114.31458288 162.95615599 -114.31693745 155.66756248 C-114.31974481 146.78211697 -114.31897741 137.89668029 -114.3136567 129.01123578 C-114.31103226 124.47940813 -114.30999333 119.9475952 -114.31330585 115.41576767 C-114.31629473 111.26386101 -114.31463293 107.11198264 -114.3093283 102.96007853 C-114.30821515 101.46152572 -114.30877073 99.9629705 -114.31120409 98.46441925 C-114.34351492 76.90528341 -114.34351492 76.90528341 -111.30564213 70.06418228 C-110.81450932 68.92916275 -110.81450932 68.92916275 -110.31345463 67.77121353 C-109.9396265 66.93976822 -109.56579838 66.10832291 -109.18064213 65.25168228 C-108.72173588 64.17531509 -108.26282963 63.09894791 -107.79001713 61.98996353 C-106.01411969 57.84452431 -104.18217211 53.72751615 -102.30564213 49.62668228 C-101.97950932 48.88933853 -101.6533765 48.15199478 -101.31736088 47.39230728 C-99.20607365 42.80826732 -96.9830803 39.68254669 -93.18064213 36.25168228 C-92.35564213 35.26168228 -91.53064213 34.27168228 -90.68064213 33.25168228 C-84.39373175 25.70738982 -77.38942873 20.21932135 -69.09861088 15.08371353 C-67.20047983 13.89198199 -65.32587566 12.66163365 -63.48142338 11.38840103 C-44.70556734 -1.41207309 -21.77114919 -0.04319242 0 0 Z " fill="#EEEBEA" transform="translate(133.18064212799072,18.74831771850586)"/>
<path d="M0 0 C0.66 0 1.32 0 2 0 C0.44499019 3.81684226 -2.03595495 6.19195732 -5 9 C-5.66 8.67 -6.32 8.34 -7 8 C-5.88200014 6.66079162 -4.75538103 5.32877444 -3.625 4 C-2.68527344 2.88625 -2.68527344 2.88625 -1.7265625 1.75 C-1.15679687 1.1725 -0.58703125 0.595 0 0 Z " fill="#AFADAC" transform="translate(54,40)"/>
</svg>
